# xmcd
#
# Track frame offsets:
#	150
#	14370
#	41885
#	69392
#
# Disc length: 1112 seconds
#
# Revision: 1
# Processed by: cddbd v1.5PL3 Copyright (c) Steve Scherf et al.
# Submitted via: CDex 1.50Beta5
#
DISCID=2f045604
DTITLE=ホフディラン - 遠距離恋愛は続く
DYEAR=1900
DGENRE=
TTITLE0=遠距離恋愛は続く
TTITLE1=Ｈｉｇｈｗａｙ９８
TTITLE2=Ｈｉｇｈｗａｙ９８
TTITLE3=遠距離恋愛は続く
EXTD=
EXTT0=
EXTT1=
EXTT2=
EXTT3=
PLAYORDER=
